<svg width="38" height="38" viewBox="0 0 38 38" fill="none" xmlns="http://www.w3.org/2000/svg">
<path d="M17.1969 12.4625C14.5835 12.4625 12.4663 14.5797 12.4663 17.1931C12.4663 19.8066 14.5835 21.9238 17.1969 21.9238C19.8104 21.9238 21.9275 19.8066 21.9275 17.1931C21.9275 14.5835 19.8104 12.4625 17.1969 12.4625Z" fill="#D9D9D9"/>
<path d="M19 0C8.50735 0 0 8.50735 0 19C0 29.4927 8.50735 38 19 38C29.4927 38 38 29.4927 38 19C38 8.50735 29.4927 0 19 0ZM28.2518 26.8986L26.8986 28.2518C26.6504 28.5 26.2471 28.5 25.9951 28.2518L23.2886 25.5453C23.0404 25.2971 23.0404 24.8939 23.2886 24.6418L23.3622 24.5682L22.0904 23.2963C22.0594 23.2653 22.04 23.2227 22.0167 23.1878C20.6945 24.2502 19.0194 24.89 17.1931 24.89C12.9433 24.89 9.49612 21.4467 9.49612 17.1931C9.5 12.9471 12.9433 9.5 17.1969 9.5C21.4467 9.5 24.8939 12.9471 24.8939 17.1969C24.8939 19.0233 24.2541 20.6984 23.1916 22.0206C23.2304 22.0439 23.2692 22.0594 23.3002 22.0943L24.572 23.3661L24.6457 23.2924C24.8939 23.0443 25.2971 23.0443 25.5492 23.2924L28.2557 25.999C28.5 26.2433 28.5 26.6504 28.2518 26.8986Z" fill="#D9D9D9"/>
</svg>
