<svg width="135" height="60" viewBox="0 0 135 60" fill="none" xmlns="http://www.w3.org/2000/svg">
<rect width="135" height="60" rx="30" fill="#21222A"/>
<path d="M51.7614 37V22.4545H56.8466C57.8598 22.4545 58.6955 22.6297 59.3537 22.9801C60.0118 23.3258 60.5019 23.7921 60.8239 24.3793C61.1458 24.9616 61.3068 25.608 61.3068 26.3182C61.3068 26.9432 61.1955 27.4593 60.973 27.8665C60.7552 28.2737 60.4664 28.5956 60.1065 28.8324C59.7514 29.0691 59.3655 29.2443 58.9489 29.358V29.5C59.3939 29.5284 59.8414 29.6847 60.2912 29.9688C60.741 30.2528 61.1174 30.66 61.4205 31.1903C61.7235 31.7206 61.875 32.3693 61.875 33.1364C61.875 33.8655 61.7093 34.5213 61.3778 35.1037C61.0464 35.6861 60.5232 36.1477 59.8082 36.4886C59.0933 36.8295 58.1629 37 57.017 37H51.7614ZM53.5227 35.4375H57.017C58.1676 35.4375 58.9844 35.215 59.4673 34.7699C59.955 34.3201 60.1989 33.7756 60.1989 33.1364C60.1989 32.6439 60.0734 32.1894 59.8224 31.7727C59.5715 31.3513 59.214 31.0152 58.75 30.7642C58.286 30.5085 57.7367 30.3807 57.1023 30.3807H53.5227V35.4375ZM53.5227 28.8466H56.7898C57.3201 28.8466 57.7983 28.7424 58.2244 28.5341C58.6553 28.3258 58.9962 28.0322 59.2472 27.6534C59.5028 27.2746 59.6307 26.8295 59.6307 26.3182C59.6307 25.679 59.4081 25.1368 58.9631 24.6918C58.518 24.242 57.8125 24.017 56.8466 24.017H53.5227V28.8466ZM65.3658 37H63.5192L68.8601 22.4545H70.6783L76.0192 37H74.1726L69.826 24.7557H69.7124L65.3658 37ZM66.0476 31.3182H73.4908V32.8807H66.0476V31.3182ZM89.3058 27H87.5444C87.4402 26.4934 87.2579 26.0483 86.9975 25.6648C86.7418 25.2812 86.4293 24.9593 86.06 24.6989C85.6954 24.4337 85.2906 24.2348 84.8455 24.1023C84.4005 23.9697 83.9364 23.9034 83.4535 23.9034C82.5728 23.9034 81.775 24.1259 81.06 24.571C80.3498 25.0161 79.784 25.6719 79.3626 26.5384C78.9459 27.4048 78.7376 28.4678 78.7376 29.7273C78.7376 30.9867 78.9459 32.0497 79.3626 32.9162C79.784 33.7827 80.3498 34.4384 81.06 34.8835C81.775 35.3286 82.5728 35.5511 83.4535 35.5511C83.9364 35.5511 84.4005 35.4848 84.8455 35.3523C85.2906 35.2197 85.6954 35.0232 86.06 34.7628C86.4293 34.4976 86.7418 34.1733 86.9975 33.7898C87.2579 33.4015 87.4402 32.9564 87.5444 32.4545H89.3058C89.1732 33.1979 88.9317 33.8632 88.5813 34.4503C88.2309 35.0374 87.7953 35.5369 87.2745 35.9489C86.7537 36.3561 86.1689 36.6662 85.5202 36.8793C84.8763 37.0923 84.1874 37.1989 83.4535 37.1989C82.213 37.1989 81.1097 36.8958 80.1438 36.2898C79.1779 35.6837 78.418 34.822 77.864 33.7045C77.31 32.5871 77.033 31.2614 77.033 29.7273C77.033 28.1932 77.31 26.8674 77.864 25.75C78.418 24.6326 79.1779 23.7708 80.1438 23.1648C81.1097 22.5587 82.213 22.2557 83.4535 22.2557C84.1874 22.2557 84.8763 22.3622 85.5202 22.5753C86.1689 22.7884 86.7537 23.1009 87.2745 23.5128C87.7953 23.92 88.2309 24.4171 88.5813 25.0043C88.9317 25.5866 89.1732 26.2519 89.3058 27ZM92.152 37V22.4545H93.9134V29.6705H94.0838L100.618 22.4545H102.919L96.8111 29.017L102.919 37H100.788L95.7315 30.2386L93.9134 32.2841V37H92.152Z" fill="#D9D9D9"/>
<path d="M21.4154 31.7747C19.9783 31.028 19.9783 28.972 21.4154 28.2253L30.0778 23.7242C31.4092 23.0324 33 23.9985 33 25.4989V34.5011C33 36.0015 31.4092 36.9676 30.0778 36.2758L21.4154 31.7747Z" fill="#BDBDBD"/>
<g filter="url(#filter0_b_140_9)">
<path d="M24.4154 31.7747C22.9783 31.028 22.9783 28.972 24.4154 28.2253L33.0778 23.7242C34.4092 23.0324 36 23.9985 36 25.4989V34.5011C36 36.0015 34.4092 36.9676 33.0778 36.2758L24.4154 31.7747Z" fill="white" fill-opacity="0.6"/>
</g>
<defs>
<filter id="filter0_b_140_9" x="21.3376" y="21.4962" width="16.6624" height="17.0076" filterUnits="userSpaceOnUse" color-interpolation-filters="sRGB">
<feFlood flood-opacity="0" result="BackgroundImageFix"/>
<feGaussianBlur in="BackgroundImageFix" stdDeviation="1"/>
<feComposite in2="SourceAlpha" operator="in" result="effect1_backgroundBlur_140_9"/>
<feBlend mode="normal" in="SourceGraphic" in2="effect1_backgroundBlur_140_9" result="shape"/>
</filter>
</defs>
</svg>
