<svg width="164" height="60" viewBox="0 0 164 60" fill="none" xmlns="http://www.w3.org/2000/svg">
<rect width="164" height="60" rx="30" fill="#21222A"/>
<path d="M34.4659 27H32.7045C32.6004 26.4934 32.4181 26.0483 32.1577 25.6648C31.902 25.2812 31.5895 24.9593 31.2202 24.6989C30.8556 24.4337 30.4508 24.2348 30.0057 24.1023C29.5606 23.9697 29.0966 23.9034 28.6136 23.9034C27.733 23.9034 26.9351 24.1259 26.2202 24.571C25.5099 25.0161 24.9441 25.6719 24.5227 26.5384C24.1061 27.4048 23.8977 28.4678 23.8977 29.7273C23.8977 30.9867 24.1061 32.0497 24.5227 32.9162C24.9441 33.7827 25.5099 34.4384 26.2202 34.8835C26.9351 35.3286 27.733 35.5511 28.6136 35.5511C29.0966 35.5511 29.5606 35.4848 30.0057 35.3523C30.4508 35.2197 30.8556 35.0232 31.2202 34.7628C31.5895 34.4976 31.902 34.1733 32.1577 33.7898C32.4181 33.4015 32.6004 32.9564 32.7045 32.4545H34.4659C34.3333 33.1979 34.0919 33.8632 33.7415 34.4503C33.3911 35.0374 32.9555 35.5369 32.4347 35.9489C31.9138 36.3561 31.3291 36.6662 30.6804 36.8793C30.0365 37.0923 29.3475 37.1989 28.6136 37.1989C27.3731 37.1989 26.2699 36.8958 25.304 36.2898C24.3381 35.6837 23.5781 34.822 23.0241 33.7045C22.4702 32.5871 22.1932 31.2614 22.1932 29.7273C22.1932 28.1932 22.4702 26.8674 23.0241 25.75C23.5781 24.6326 24.3381 23.7708 25.304 23.1648C26.2699 22.5587 27.3731 22.2557 28.6136 22.2557C29.3475 22.2557 30.0365 22.3622 30.6804 22.5753C31.3291 22.7884 31.9138 23.1009 32.4347 23.5128C32.9555 23.92 33.3911 24.4171 33.7415 25.0043C34.0919 25.5866 34.3333 26.2519 34.4659 27ZM49.5849 29.7273C49.5849 31.2614 49.3079 32.5871 48.7539 33.7045C48.1999 34.822 47.44 35.6837 46.4741 36.2898C45.5082 36.8958 44.4049 37.1989 43.1644 37.1989C41.9239 37.1989 40.8207 36.8958 39.8548 36.2898C38.8888 35.6837 38.1289 34.822 37.5749 33.7045C37.021 32.5871 36.744 31.2614 36.744 29.7273C36.744 28.1932 37.021 26.8674 37.5749 25.75C38.1289 24.6326 38.8888 23.7708 39.8548 23.1648C40.8207 22.5587 41.9239 22.2557 43.1644 22.2557C44.4049 22.2557 45.5082 22.5587 46.4741 23.1648C47.44 23.7708 48.1999 24.6326 48.7539 25.75C49.3079 26.8674 49.5849 28.1932 49.5849 29.7273ZM47.8803 29.7273C47.8803 28.4678 47.6696 27.4048 47.2482 26.5384C46.8316 25.6719 46.2657 25.0161 45.5508 24.571C44.8406 24.1259 44.0451 23.9034 43.1644 23.9034C42.2837 23.9034 41.4859 24.1259 40.771 24.571C40.0607 25.0161 39.4949 25.6719 39.0735 26.5384C38.6568 27.4048 38.4485 28.4678 38.4485 29.7273C38.4485 30.9867 38.6568 32.0497 39.0735 32.9162C39.4949 33.7827 40.0607 34.4384 40.771 34.8835C41.4859 35.3286 42.2837 35.5511 43.1644 35.5511C44.0451 35.5511 44.8406 35.3286 45.5508 34.8835C46.2657 34.4384 46.8316 33.7827 47.2482 32.9162C47.6696 32.0497 47.8803 30.9867 47.8803 29.7273ZM64.0806 22.4545V37H62.3761L54.4499 25.5795H54.3079V37H52.5465V22.4545H54.2511L62.2056 33.9034H62.3477V22.4545H64.0806ZM67.6051 37V22.4545H76.3267V24.017H69.3665V28.9318H75.6733V30.4943H69.3665V37H67.6051ZM81.1048 22.4545V37H79.3434V22.4545H81.1048ZM84.6364 37V22.4545H89.5511C90.6875 22.4545 91.6203 22.6487 92.3494 23.0369C93.0786 23.4205 93.6184 23.9484 93.9688 24.6207C94.3191 25.2931 94.4943 26.0578 94.4943 26.9148C94.4943 27.7718 94.3191 28.5317 93.9688 29.1946C93.6184 29.8575 93.081 30.3783 92.3565 30.7571C91.6321 31.1312 90.7064 31.3182 89.5795 31.3182H85.6023V29.7273H89.5227C90.2992 29.7273 90.9242 29.6136 91.3977 29.3864C91.8759 29.1591 92.2216 28.8371 92.4347 28.4205C92.6525 27.9991 92.7614 27.4972 92.7614 26.9148C92.7614 26.3324 92.6525 25.8234 92.4347 25.3878C92.2169 24.9522 91.8688 24.616 91.3906 24.3793C90.9124 24.1378 90.2803 24.017 89.4943 24.017H86.3977V37H84.6364ZM91.483 30.4659L95.0625 37H93.017L89.4943 30.4659H91.483ZM97.4293 22.4545H99.5316L104.475 34.5284H104.645L109.588 22.4545H111.691V37H110.043V25.9489H109.901L105.355 37H103.765L99.2191 25.9489H99.0771V37H97.4293V22.4545Z" fill="white"/>
<path d="M139.585 31.7747C141.022 31.028 141.022 28.972 139.585 28.2253L130.922 23.7242C129.591 23.0324 128 23.9985 128 25.4989V34.5011C128 36.0015 129.591 36.9676 130.922 36.2758L139.585 31.7747Z" fill="#BDBDBD"/>
<g filter="url(#filter0_b_141_2)">
<path d="M136.585 31.7747C138.022 31.028 138.022 28.972 136.585 28.2253L127.922 23.7242C126.591 23.0324 125 23.9985 125 25.4989V34.5011C125 36.0015 126.591 36.9676 127.922 36.2758L136.585 31.7747Z" fill="white" fill-opacity="0.6"/>
</g>
<defs>
<filter id="filter0_b_141_2" x="123" y="21.4962" width="16.6624" height="17.0076" filterUnits="userSpaceOnUse" color-interpolation-filters="sRGB">
<feFlood flood-opacity="0" result="BackgroundImageFix"/>
<feGaussianBlur in="BackgroundImageFix" stdDeviation="1"/>
<feComposite in2="SourceAlpha" operator="in" result="effect1_backgroundBlur_141_2"/>
<feBlend mode="normal" in="SourceGraphic" in2="effect1_backgroundBlur_141_2" result="shape"/>
</filter>
</defs>
</svg>
